<?xml version="1.0" encoding="UTF-8" standalone="no"?>
<!DOCTYPE svg PUBLIC "-//W3C//DTD SVG 1.1//EN"
 "http://www.w3.org/Graphics/SVG/1.1/DTD/svg11.dtd">
<!-- Generated by graphviz version 2.47.0 (20210316.0004)
 -->
<!-- Title: dependencies Pages: 1 -->
<svg width="636pt" height="287pt"
 viewBox="0.00 0.00 636.00 287.00" xmlns="http://www.w3.org/2000/svg" xmlns:xlink="http://www.w3.org/1999/xlink">
<g id="graph0" class="graph" transform="scale(1 1) rotate(0) translate(4 283)">
<title>dependencies</title>
<polygon fill="white" stroke="transparent" points="-4,4 -4,-283 632,-283 632,4 -4,4"/>
<text text-anchor="start" x="293.01" y="-42.4" font-family="Times-12" font-weight="bold" font-size="14.00">Legend</text>
<polygon fill="#ffffb3" stroke="transparent" points="80,-10 80,-30 100,-30 100,-10 80,-10"/>
<text text-anchor="start" x="103.63" y="-15.4" font-family="Times-12" font-size="14.00"> &#160;Declarations</text>
<polygon fill="#8dd3c7" stroke="transparent" points="193,-10 193,-30 213,-30 213,-10 193,-10"/>
<text text-anchor="start" x="216.73" y="-15.4" font-family="Times-12" font-size="14.00"> &#160;Module</text>
<polygon fill="#80b1d3" stroke="transparent" points="279,-10 279,-30 299,-30 299,-10 279,-10"/>
<text text-anchor="start" x="302.78" y="-15.4" font-family="Times-12" font-size="14.00"> &#160;Bootstrap</text>
<polygon fill="#fdb462" stroke="transparent" points="376,-10 376,-30 396,-30 396,-10 376,-10"/>
<text text-anchor="start" x="399.67" y="-15.4" font-family="Times-12" font-size="14.00"> &#160;Providers</text>
<polygon fill="#fb8072" stroke="transparent" points="472,-10 472,-30 492,-30 492,-10 472,-10"/>
<text text-anchor="start" x="495.73" y="-15.4" font-family="Times-12" font-size="14.00"> &#160;Exports</text>
<g id="clust1" class="cluster">
<title>cluster_AppModule</title>
<polygon fill="none" stroke="black" stroke-dasharray="1,5" points="105,-146 105,-271 445,-271 445,-146 105,-146"/>
</g>
<g id="clust3" class="cluster">
<title>cluster_AppModule_imports</title>
<polygon fill="none" stroke="black" points="113,-154 113,-206 437,-206 437,-154 113,-154"/>
</g>
<g id="clust7" class="cluster">
<title>cluster_AuthModule</title>
<polygon fill="none" stroke="black" stroke-dasharray="1,5" points="8,-70 8,-138 292,-138 292,-70 8,-70"/>
</g>
<g id="clust9" class="cluster">
<title>cluster_AuthModule_imports</title>
<polygon fill="none" stroke="black" points="158,-78 158,-130 284,-130 284,-78 158,-78"/>
</g>
<g id="clust12" class="cluster">
<title>cluster_AuthModule_providers</title>
<polygon fill="none" stroke="black" points="16,-78 16,-130 150,-130 150,-78 16,-78"/>
</g>
<g id="clust19" class="cluster">
<title>cluster_ProfileModule</title>
<polygon fill="none" stroke="black" stroke-dasharray="1,5" points="300,-70 300,-138 464,-138 464,-70 300,-70"/>
</g>
<g id="clust24" class="cluster">
<title>cluster_ProfileModule_providers</title>
<polygon fill="none" stroke="black" points="308,-78 308,-130 456,-130 456,-78 308,-78"/>
</g>
<g id="clust25" class="cluster">
<title>cluster_UserModule</title>
<polygon fill="none" stroke="black" stroke-dasharray="1,5" points="472,-70 472,-138 620,-138 620,-70 472,-70"/>
</g>
<g id="clust30" class="cluster">
<title>cluster_UserModule_providers</title>
<polygon fill="none" stroke="black" points="480,-78 480,-130 612,-130 612,-78 480,-78"/>
</g>
<!-- AuthModule -->
<g id="node1" class="node">
<title>AuthModule</title>
<polygon fill="#8dd3c7" stroke="black" points="208.55,-198 205.55,-202 184.55,-202 181.55,-198 121.45,-198 121.45,-162 208.55,-162 208.55,-198"/>
<text text-anchor="middle" x="165" y="-175.8" font-family="Times,serif" font-size="14.00">AuthModule</text>
</g>
<!-- AppModule -->
<g id="node4" class="node">
<title>AppModule</title>
<polygon fill="#8dd3c7" stroke="black" points="317.66,-263 314.66,-267 293.66,-267 290.66,-263 234.34,-263 234.34,-227 317.66,-227 317.66,-263"/>
<text text-anchor="middle" x="276" y="-240.8" font-family="Times,serif" font-size="14.00">AppModule</text>
</g>
<!-- AuthModule&#45;&gt;AppModule -->
<g id="edge1" class="edge">
<title>AuthModule&#45;&gt;AppModule</title>
<path fill="none" stroke="black" d="M165,-198.11C165,-217.34 165,-245 165,-245 165,-245 224.04,-245 224.04,-245"/>
<polygon fill="black" stroke="black" points="224.04,-248.5 234.04,-245 224.04,-241.5 224.04,-248.5"/>
</g>
<!-- ProfileModule -->
<g id="node2" class="node">
<title>ProfileModule</title>
<polygon fill="#8dd3c7" stroke="black" points="324.65,-198 321.65,-202 300.65,-202 297.65,-198 227.35,-198 227.35,-162 324.65,-162 324.65,-198"/>
<text text-anchor="middle" x="276" y="-175.8" font-family="Times,serif" font-size="14.00">ProfileModule</text>
</g>
<!-- ProfileModule&#45;&gt;AppModule -->
<g id="edge2" class="edge">
<title>ProfileModule&#45;&gt;AppModule</title>
<path fill="none" stroke="black" d="M276,-198.11C276,-198.11 276,-216.99 276,-216.99"/>
<polygon fill="black" stroke="black" points="272.5,-216.99 276,-226.99 279.5,-216.99 272.5,-216.99"/>
</g>
<!-- UserModule -->
<g id="node3" class="node">
<title>UserModule</title>
<polygon fill="#8dd3c7" stroke="black" points="428.98,-198 425.98,-202 404.98,-202 401.98,-198 343.02,-198 343.02,-162 428.98,-162 428.98,-198"/>
<text text-anchor="middle" x="386" y="-175.8" font-family="Times,serif" font-size="14.00">UserModule</text>
</g>
<!-- UserModule&#45;&gt;AppModule -->
<g id="edge3" class="edge">
<title>UserModule&#45;&gt;AppModule</title>
<path fill="none" stroke="black" d="M386,-198.11C386,-217.34 386,-245 386,-245 386,-245 327.9,-245 327.9,-245"/>
<polygon fill="black" stroke="black" points="327.9,-241.5 317.9,-245 327.9,-248.5 327.9,-241.5"/>
</g>
<!-- DatabaseModule -->
<g id="node5" class="node">
<title>DatabaseModule</title>
<polygon fill="#8dd3c7" stroke="black" points="276.35,-122 273.35,-126 252.35,-126 249.35,-122 165.65,-122 165.65,-86 276.35,-86 276.35,-122"/>
<text text-anchor="middle" x="221" y="-99.8" font-family="Times,serif" font-size="14.00">DatabaseModule</text>
</g>
<!-- DatabaseModule&#45;&gt;AuthModule -->
<g id="edge4" class="edge">
<title>DatabaseModule&#45;&gt;AuthModule</title>
<path fill="none" stroke="black" d="M187.17,-122.01C187.17,-122.01 187.17,-151.85 187.17,-151.85"/>
<polygon fill="black" stroke="black" points="183.67,-151.85 187.17,-161.85 190.67,-151.85 183.67,-151.85"/>
</g>
<!-- DatabaseModule&#45;&gt;ProfileModule -->
<g id="edge6" class="edge">
<title>DatabaseModule&#45;&gt;ProfileModule</title>
<path fill="none" stroke="black" d="M243.59,-122.01C243.59,-122.01 243.59,-151.85 243.59,-151.85"/>
<polygon fill="black" stroke="black" points="240.09,-151.85 243.59,-161.85 247.09,-151.85 240.09,-151.85"/>
</g>
<!-- DatabaseModule&#45;&gt;UserModule -->
<g id="edge8" class="edge">
<title>DatabaseModule&#45;&gt;UserModule</title>
<path fill="none" stroke="black" d="M260.01,-122.11C260.01,-131.9 260.01,-142 260.01,-142 260.01,-142 386,-142 386,-142 386,-142 386,-151.89 386,-151.89"/>
<polygon fill="black" stroke="black" points="382.5,-151.89 386,-161.89 389.5,-151.89 382.5,-151.89"/>
</g>
<!-- AuthService -->
<g id="node6" class="node">
<title>AuthService</title>
<ellipse fill="#fdb462" stroke="black" cx="83" cy="-104" rx="59.11" ry="18"/>
<text text-anchor="middle" x="83" y="-99.8" font-family="Times,serif" font-size="14.00">AuthService</text>
</g>
<!-- AuthService&#45;&gt;AuthModule -->
<g id="edge5" class="edge">
<title>AuthService&#45;&gt;AuthModule</title>
<path fill="none" stroke="black" d="M131.77,-114.25C131.77,-114.25 131.77,-151.77 131.77,-151.77"/>
<polygon fill="black" stroke="black" points="128.27,-151.77 131.77,-161.77 135.27,-151.77 128.27,-151.77"/>
</g>
<!-- ProfileService -->
<g id="node7" class="node">
<title>ProfileService</title>
<ellipse fill="#fdb462" stroke="black" cx="382" cy="-104" rx="66.05" ry="18"/>
<text text-anchor="middle" x="382" y="-99.8" font-family="Times,serif" font-size="14.00">ProfileService</text>
</g>
<!-- ProfileService&#45;&gt;ProfileModule -->
<g id="edge7" class="edge">
<title>ProfileService&#45;&gt;ProfileModule</title>
<path fill="none" stroke="black" d="M320.28,-110.74C320.28,-110.74 320.28,-151.74 320.28,-151.74"/>
<polygon fill="black" stroke="black" points="316.78,-151.74 320.28,-161.74 323.78,-151.74 316.78,-151.74"/>
</g>
<!-- UserService -->
<g id="node8" class="node">
<title>UserService</title>
<ellipse fill="#fdb462" stroke="black" cx="546" cy="-104" rx="58.44" ry="18"/>
<text text-anchor="middle" x="546" y="-99.8" font-family="Times,serif" font-size="14.00">UserService</text>
</g>
<!-- UserService&#45;&gt;UserModule -->
<g id="edge9" class="edge">
<title>UserService&#45;&gt;UserModule</title>
<path fill="none" stroke="black" d="M546,-122.01C546,-144.49 546,-180 546,-180 546,-180 439.3,-180 439.3,-180"/>
<polygon fill="black" stroke="black" points="439.3,-176.5 429.3,-180 439.3,-183.5 439.3,-176.5"/>
</g>
</g>
</svg>
